<svg width="55" height="55" viewBox="0 0 55 55" fill="none" xmlns="http://www.w3.org/2000/svg">
<circle cx="27.5" cy="27.5" r="27.5" fill="#3B3B3B"/>
<path d="M25.5721 29.7624C26.0846 30.2499 26.0846 31.0499 25.5721 31.5374C25.0846 32.0249 24.2846 32.0249 23.7971 31.5374C22.6263 30.3649 21.9688 28.7756 21.9688 27.1186C21.9687 25.4617 22.6263 23.8724 23.7971 22.6999L28.2221 18.2749C29.3946 17.1041 30.9839 16.4465 32.6409 16.4465C34.2978 16.4465 35.8871 17.1041 37.0596 18.2749C38.2304 19.4474 38.888 21.0367 38.888 22.6936C38.888 24.3506 38.2304 25.9399 37.0596 27.1124L35.1971 28.9749C35.2096 27.9499 35.0471 26.9249 34.6971 25.9499L35.2846 25.3499C35.635 25.0033 35.9132 24.5906 36.1031 24.1357C36.2929 23.6808 36.3907 23.1928 36.3907 22.6999C36.3907 22.207 36.2929 21.719 36.1031 21.2641C35.9132 20.8092 35.635 20.3965 35.2846 20.0499C34.938 19.6995 34.5253 19.4213 34.0704 19.2314C33.6155 19.0416 33.1275 18.9438 32.6346 18.9438C32.1417 18.9438 31.6537 19.0416 31.1988 19.2314C30.744 19.4213 30.3313 19.6995 29.9846 20.0499L25.5721 24.4624C25.2217 24.809 24.9435 25.2217 24.7536 25.6766C24.5638 26.1315 24.466 26.6195 24.466 27.1124C24.466 27.6053 24.5638 28.0933 24.7536 28.5482C24.9435 29.0031 25.2217 29.4158 25.5721 29.7624ZM29.0971 24.4624C29.5846 23.9749 30.3846 23.9749 30.8721 24.4624C32.0429 25.6349 32.7005 27.2242 32.7005 28.8811C32.7005 30.5381 32.0429 32.1274 30.8721 33.2999L26.4471 37.7249C25.2746 38.8957 23.6853 39.5533 22.0284 39.5533C20.3714 39.5533 18.7821 38.8957 17.6096 37.7249C16.4388 36.5524 15.7812 34.9631 15.7812 33.3061C15.7812 31.6492 16.4388 30.0599 17.6096 28.8874L19.4721 27.0249C19.4596 28.0499 19.6221 29.0749 19.9721 30.0624L19.3846 30.6499C19.0342 30.9965 18.756 31.4092 18.5661 31.8641C18.3763 32.319 18.2785 32.807 18.2785 33.2999C18.2785 33.7928 18.3763 34.2808 18.5661 34.7357C18.756 35.1906 19.0342 35.6033 19.3846 35.9499C19.7313 36.3003 20.144 36.5785 20.5988 36.7684C21.0537 36.9582 21.5417 37.056 22.0346 37.056C22.5275 37.056 23.0155 36.9582 23.4704 36.7684C23.9253 36.5785 24.338 36.3003 24.6846 35.9499L29.0971 31.5374C29.4475 31.1908 29.7257 30.7781 29.9156 30.3232C30.1055 29.8683 30.2032 29.3803 30.2032 28.8874C30.2032 28.3945 30.1055 27.9065 29.9156 27.4516C29.7257 26.9967 29.4475 26.584 29.0971 26.2374C28.9757 26.1236 28.8789 25.9862 28.8128 25.8335C28.7466 25.6809 28.7125 25.5163 28.7125 25.3499C28.7125 25.1835 28.7466 25.0189 28.8128 24.8663C28.8789 24.7136 28.9757 24.5762 29.0971 24.4624Z" fill="white"/>
</svg>
