<svg width="56" height="55" viewBox="0 0 56 55" fill="none" xmlns="http://www.w3.org/2000/svg">
<circle cx="27.834" cy="27.5" r="27.5" fill="url(#paint0_linear_487_587)"/>
<path d="M33.4686 17.0623C34.9177 17.0666 36.3063 17.6442 37.331 18.669C38.3558 19.6937 38.9334 21.0823 38.9377 22.5314V33.4686C38.9334 34.9177 38.3558 36.3063 37.331 37.331C36.3063 38.3558 34.9177 38.9334 33.4686 38.9377H22.5314C21.0823 38.9334 19.6937 38.3558 18.669 37.331C17.6442 36.3063 17.0666 34.9177 17.0623 33.4686V22.5314C17.0666 21.0823 17.6442 19.6937 18.669 18.669C19.6937 17.6442 21.0823 17.0666 22.5314 17.0623H33.4686ZM33.4686 14.875H22.5314C18.3203 14.875 14.875 18.3203 14.875 22.5314V33.4686C14.875 37.6797 18.3203 41.125 22.5314 41.125H33.4686C37.6797 41.125 41.125 37.6797 41.125 33.4686V22.5314C41.125 18.3203 37.6797 14.875 33.4686 14.875Z" fill="white"/>
<path d="M35.1092 22.5315C34.7847 22.5315 34.4675 22.4353 34.1977 22.255C33.9279 22.0747 33.7176 21.8185 33.5934 21.5187C33.4693 21.2189 33.4368 20.889 33.5001 20.5708C33.5634 20.2525 33.7196 19.9602 33.9491 19.7308C34.1785 19.5013 34.4709 19.3451 34.7891 19.2818C35.1074 19.2185 35.4372 19.251 35.737 19.3751C36.0368 19.4993 36.293 19.7096 36.4733 19.9794C36.6536 20.2492 36.7498 20.5664 36.7498 20.8909C36.7503 21.1064 36.7081 21.32 36.6259 21.5193C36.5436 21.7185 36.4228 21.8996 36.2703 22.052C36.1179 22.2044 35.9368 22.3253 35.7376 22.4076C35.5383 22.4898 35.3248 22.532 35.1092 22.5315ZM28 23.6249C28.8653 23.6249 29.7112 23.8815 30.4307 24.3622C31.1502 24.843 31.711 25.5263 32.0422 26.3257C32.3733 27.1252 32.4599 28.0049 32.2911 28.8536C32.1223 29.7023 31.7056 30.4819 31.0937 31.0938C30.4819 31.7057 29.7023 32.1224 28.8536 32.2912C28.0049 32.46 27.1252 32.3734 26.3257 32.0422C25.5262 31.7111 24.8429 31.1503 24.3622 30.4308C23.8814 29.7113 23.6248 28.8654 23.6248 28C23.626 26.8401 24.0874 25.7279 24.9076 24.9077C25.7279 24.0875 26.84 23.6261 28 23.6249ZM28 21.4375C26.7021 21.4375 25.4333 21.8224 24.3541 22.5435C23.2749 23.2646 22.4337 24.2895 21.937 25.4887C21.4403 26.6878 21.3104 28.0073 21.5636 29.2803C21.8168 30.5533 22.4418 31.7227 23.3596 32.6404C24.2774 33.5582 25.4467 34.1832 26.7197 34.4365C27.9927 34.6897 29.3122 34.5597 30.5114 34.063C31.7105 33.5663 32.7354 32.7252 33.4565 31.646C34.1776 30.5668 34.5625 29.298 34.5625 28C34.5625 26.2596 33.8711 24.5904 32.6404 23.3597C31.4097 22.129 29.7405 21.4375 28 21.4375Z" fill="white"/>
<defs>
<linearGradient id="paint0_linear_487_587" x1="11.5006" y1="6" x2="42.5006" y2="50" gradientUnits="userSpaceOnUse">
<stop stop-color="#8C48DB"/>
<stop offset="0.270833" stop-color="#CC4498"/>
<stop offset="0.515625" stop-color="#F7416A"/>
<stop offset="0.807292" stop-color="#FE7C4A"/>
<stop offset="0.990131" stop-color="#FFB135"/>
</linearGradient>
</defs>
</svg>
