<svg width="56" height="55" viewBox="0 0 56 55" fill="none" xmlns="http://www.w3.org/2000/svg">
<circle cx="27.834" cy="27.5" r="27.5" fill="#22B943"/>
<g clip-path="url(#clip0_487_612)">
<path d="M28 13C36.013 13 43 19.615 43 27.25C43 34.756 36.1705 40.663 28 40.663C26.2525 40.6639 24.5159 40.3875 22.855 39.844C22.159 40.519 21.9205 40.7485 20.443 42.1735C19.378 42.9775 18.376 43.2505 17.4805 42.7435C16.5775 42.2335 16.306 41.2405 16.4905 39.9325L17.0905 36.454C14.485 34.003 13 30.763 13 27.25C13 19.615 19.9855 13 28 13ZM28 15.1C21.121 15.1 15.1 20.8 15.1 27.25C15.1 30.3175 16.468 33.142 18.88 35.245L18.91 35.2705L19.3555 35.6575L19.255 36.2425L19.048 37.4485L18.9925 37.7695L18.565 40.2565C18.5398 40.4239 18.5248 40.5927 18.52 40.762V40.9045C18.52 40.912 18.5185 40.915 18.517 40.9165C18.5275 40.9015 18.7315 40.837 19.081 40.582L22.336 37.423L22.957 37.657C24.5701 38.2589 26.2782 38.5663 28 38.5645C35.074 38.5645 40.9 33.5245 40.9 27.25C40.9 20.8015 34.879 15.1 28 15.1ZM20.8405 24.7195C21.1427 24.7085 21.444 24.7584 21.7264 24.8665C22.0089 24.9745 22.2666 25.1383 22.4843 25.3482C22.702 25.5581 22.8752 25.8097 22.9934 26.088C23.1117 26.3663 23.1726 26.6656 23.1726 26.968C23.1726 27.2704 23.1117 27.5697 22.9934 27.848C22.8752 28.1263 22.702 28.3779 22.4843 28.5878C22.2666 28.7977 22.0089 28.9615 21.7264 29.0695C21.444 29.1776 21.1427 29.2275 20.8405 29.2165C20.2584 29.1952 19.7072 28.949 19.3029 28.5297C18.8986 28.1103 18.6726 27.5505 18.6726 26.968C18.6726 26.3855 18.8986 25.8257 19.3029 25.4063C19.7072 24.987 20.2584 24.7408 20.8405 24.7195ZM28.3375 24.7195C28.6397 24.7085 28.941 24.7584 29.2234 24.8665C29.5059 24.9745 29.7636 25.1383 29.9813 25.3482C30.199 25.5581 30.3722 25.8097 30.4904 26.088C30.6087 26.3663 30.6696 26.6656 30.6696 26.968C30.6696 27.2704 30.6087 27.5697 30.4904 27.848C30.3722 28.1263 30.199 28.3779 29.9813 28.5878C29.7636 28.7977 29.5059 28.9615 29.2234 29.0695C28.941 29.1776 28.6397 29.2275 28.3375 29.2165C27.7554 29.1952 27.2042 28.949 26.7999 28.5297C26.3956 28.1103 26.1696 27.5505 26.1696 26.968C26.1696 26.3855 26.3956 25.8257 26.7999 25.4063C27.2042 24.987 27.7554 24.7408 28.3375 24.7195ZM35.833 24.7195C36.1352 24.7085 36.4365 24.7584 36.7189 24.8665C37.0014 24.9745 37.2591 25.1383 37.4768 25.3482C37.6945 25.5581 37.8677 25.8097 37.9859 26.088C38.1042 26.3663 38.1651 26.6656 38.1651 26.968C38.1651 27.2704 38.1042 27.5697 37.9859 27.848C37.8677 28.1263 37.6945 28.3779 37.4768 28.5878C37.2591 28.7977 37.0014 28.9615 36.7189 29.0695C36.4365 29.1776 36.1352 29.2275 35.833 29.2165C35.2509 29.1952 34.6997 28.949 34.2954 28.5297C33.8911 28.1103 33.6651 27.5505 33.6651 26.968C33.6651 26.3855 33.8911 25.8257 34.2954 25.4063C34.6997 24.987 35.2509 24.7408 35.833 24.7195Z" fill="white"/>
</g>
<defs>
<clipPath id="clip0_487_612">
<rect width="30" height="30" fill="white" transform="translate(13 13)"/>
</clipPath>
</defs>
</svg>
