<svg width="55" height="55" viewBox="0 0 55 55" fill="none" xmlns="http://www.w3.org/2000/svg">
<circle cx="27.5" cy="27.5" r="27.5" fill="url(#paint0_linear_487_600)"/>
<path d="M27.0009 15.8125C24.8843 15.8123 22.8041 16.3634 20.9652 17.4115C19.1262 18.4596 17.592 19.9685 16.5134 21.7898C15.4349 23.611 14.8492 25.6817 14.8142 27.7981C14.7791 29.9144 15.2958 32.0034 16.3134 33.8594L15.3173 37.375C15.2244 37.6954 15.2192 38.0348 15.3022 38.3578C15.3852 38.6809 15.5535 38.9758 15.7893 39.2116C16.0252 39.4475 16.32 39.6157 16.6431 39.6987C16.9661 39.7817 17.3056 39.7765 17.6259 39.6836L21.1416 38.6875C22.7708 39.5805 24.5826 40.0891 26.4386 40.1746C28.2945 40.2601 30.1454 39.9201 31.8498 39.1806C33.5543 38.4412 35.0671 37.3219 36.2726 35.9082C37.4782 34.4945 38.3446 32.824 38.8056 31.0242C39.2666 29.2244 39.31 27.343 38.9325 25.5238C38.5551 23.7047 37.7667 21.9959 36.6276 20.5281C35.4886 19.0603 34.0291 17.8724 32.3606 17.0551C30.6921 16.2378 28.8588 15.8128 27.0009 15.8125ZM27.0009 38.3125C25.1497 38.3108 23.3328 37.8131 21.7392 36.8711C21.5922 36.7891 21.4271 36.7448 21.2587 36.7422C21.1716 36.7423 21.0849 36.7541 21.0009 36.7773L17.1103 37.8906L18.2236 34C18.2578 33.8769 18.2672 33.7482 18.2511 33.6214C18.235 33.4946 18.1938 33.3724 18.1298 33.2617C16.9689 31.3049 16.4878 29.0191 16.7613 26.7603C17.0348 24.5015 18.0477 22.3966 19.6421 20.7734C21.2365 19.1502 23.323 18.0999 25.5765 17.7861C27.8301 17.4722 30.1241 17.9125 32.1014 19.0382C34.0787 20.164 35.6281 21.9121 36.5084 24.0102C37.3887 26.1083 37.5504 28.4386 36.9683 30.6381C36.3863 32.8377 35.0931 34.783 33.2903 36.1711C31.4875 37.5592 29.2762 38.3121 27.0009 38.3125ZM33.2939 25.457C33.4699 25.6348 33.5687 25.8748 33.5687 26.125C33.5687 26.3752 33.4699 26.6152 33.2939 26.793L29.5439 30.543C29.3647 30.7162 29.1252 30.8131 28.8759 30.8131C28.6267 30.8131 28.3871 30.7162 28.208 30.543L25.1259 27.4492L22.0439 30.543C21.8617 30.6925 21.6305 30.7689 21.3951 30.7573C21.1598 30.7457 20.9371 30.6471 20.7705 30.4804C20.6039 30.3138 20.5052 30.0912 20.4936 29.8558C20.4821 29.6204 20.5585 29.3892 20.708 29.207L24.458 25.457C24.6357 25.281 24.8758 25.1822 25.1259 25.1822C25.3761 25.1822 25.6161 25.281 25.7939 25.457L28.8759 28.5508L31.958 25.457C32.1357 25.281 32.3758 25.1822 32.6259 25.1822C32.8761 25.1822 33.1161 25.281 33.2939 25.457Z" fill="white"/>
<defs>
<linearGradient id="paint0_linear_487_600" x1="11" y1="45" x2="49.5" y2="11.5" gradientUnits="userSpaceOnUse">
<stop stop-color="#2A7EFF"/>
<stop offset="0.260417" stop-color="#7A4BFF"/>
<stop offset="0.536458" stop-color="#B038E9"/>
<stop offset="0.776042" stop-color="#EC4C99"/>
<stop offset="1" stop-color="#FF666A"/>
</linearGradient>
</defs>
</svg>
