<svg width="55" height="55" viewBox="0 0 55 55" fill="none" xmlns="http://www.w3.org/2000/svg">
<circle cx="27.5" cy="27.5" r="27.5" fill="#27A1FC"/>
<path d="M39.0589 13.5255C38.7533 13.2665 38.3833 13.0952 37.9882 13.0298C37.593 12.9643 37.1876 13.0072 36.8148 13.1537L11.4008 23.1349C10.955 23.3047 10.5774 23.6164 10.3262 24.0219C10.0749 24.4273 9.96394 24.9042 10.0103 25.3789C10.0516 25.8535 10.2457 26.3019 10.5634 26.6568C10.8812 27.0118 11.3054 27.2542 11.7725 27.3476L18.2293 28.628V36.6955C18.229 37.1319 18.3584 37.5586 18.6011 37.9214C18.8438 38.2841 19.1887 38.5666 19.5922 38.733C19.8592 38.8405 20.1442 38.8965 20.432 38.8982C20.7213 38.8992 21.0079 38.8425 21.275 38.7314C21.5421 38.6203 21.7844 38.4571 21.9877 38.2512L25.5671 34.6855L30.9776 39.4489C31.377 39.8012 31.8906 39.9968 32.4231 39.9996C32.6573 40.0044 32.8905 39.9671 33.1115 39.8895C33.4748 39.7745 33.8018 39.5667 34.0601 39.2866C34.3185 39.0065 34.4993 38.6638 34.5846 38.2925L39.761 15.6869C39.8515 15.2968 39.8339 14.8895 39.7102 14.5086C39.5865 14.1278 39.3613 13.7879 39.0589 13.5255ZM19.069 26.5491L12.213 25.1862L31.4319 17.6281L19.069 26.5491ZM20.432 36.6955V30.1699L23.9013 33.2262L20.432 36.6955ZM32.4369 37.7969L21.0928 27.8157L37.4344 16.0173L32.4369 37.7969Z" fill="white"/>
</svg>
