<svg width="55" height="55" viewBox="0 0 55 55" fill="none" xmlns="http://www.w3.org/2000/svg">
<circle cx="27.5" cy="27.5" r="27.5" fill="#1DA1F3"/>
<path fill-rule="evenodd" clip-rule="evenodd" d="M26.4661 25.3919C26.4661 21.9379 29.2661 19.1379 32.7201 19.1379C34.7481 19.1379 36.3661 20.0959 37.4501 21.4879C38.5967 21.2529 39.6959 20.8277 40.7021 20.2299C40.3125 21.4423 39.4968 22.4726 38.4061 23.1299L38.4101 23.1359C39.4455 23.0108 40.4566 22.7325 41.4101 22.3099L41.4081 22.3139C40.7341 23.3239 39.8881 24.2139 38.9121 24.9399C38.9641 25.2939 38.9921 25.6479 38.9921 25.9999C38.9921 33.3739 33.3741 41.9499 23.0421 41.9499C19.9955 41.9526 17.0126 41.0777 14.4501 39.4299C14.3295 39.3525 14.2269 39.25 14.1493 39.1295C14.0717 39.009 14.021 38.8731 14.0005 38.7313C13.98 38.5894 13.9903 38.4448 14.0306 38.3072C14.0709 38.1696 14.1403 38.0423 14.2341 37.9339C14.3233 37.7856 14.4534 37.6662 14.6088 37.5899C14.7641 37.5136 14.9382 37.4838 15.1101 37.5039C16.9421 37.7199 18.7701 37.4959 20.3841 36.7919C19.588 36.4402 18.8753 35.9241 18.2928 35.2774C17.7103 34.6308 17.2711 33.8683 17.0041 33.0399C16.9547 32.8859 16.9478 32.7213 16.9841 32.5637C17.0203 32.406 17.0984 32.261 17.2101 32.1439C16.5528 31.5671 16.0263 30.8565 15.6659 30.0598C15.3055 29.263 15.1194 28.3984 15.1201 27.5239V27.4559C15.1201 27.2467 15.1929 27.044 15.3261 26.8827C15.4594 26.7213 15.6446 26.6115 15.8501 26.5719C15.3967 25.6969 15.1607 24.7255 15.1621 23.7399C15.1621 22.8039 15.1681 21.6239 15.8261 20.5599C15.8964 20.4472 15.9908 20.3515 16.1025 20.2795C16.2142 20.2076 16.3404 20.1613 16.4721 20.1439C16.6631 20.0837 16.8677 20.0822 17.0596 20.1396C17.2514 20.197 17.4216 20.3107 17.5481 20.4659C19.7775 23.2085 22.9663 25.0009 26.4681 25.4799V25.3919H26.4661ZM23.0421 39.9499C21.5119 39.9511 19.992 39.699 18.5441 39.2039C20.2857 38.9167 21.9284 38.2005 23.3241 37.1199C23.4704 37.0052 23.5775 36.848 23.6308 36.6699C23.6841 36.4918 23.681 36.3015 23.6218 36.1253C23.5626 35.9491 23.4503 35.7955 23.3003 35.6856C23.1503 35.5758 22.97 35.5151 22.7841 35.5119C22.1145 35.4999 21.4568 35.3333 20.8622 35.0253C20.2676 34.7172 19.7521 34.276 19.3561 33.7359C19.7361 33.7059 20.1081 33.6399 20.4681 33.5439C20.6643 33.4915 20.8371 33.3742 20.9582 33.2111C21.0793 33.048 21.1417 32.8488 21.1352 32.6457C21.1287 32.4427 21.0537 32.2478 20.9224 32.0928C20.7912 31.9378 20.6113 31.8318 20.4121 31.7919C19.6512 31.6378 18.9453 31.2833 18.3673 30.765C17.7892 30.2468 17.3601 29.5836 17.1241 28.8439C17.5241 28.9399 17.9421 28.9979 18.3701 29.0119C18.5657 29.0185 18.7581 28.9612 18.9182 28.8486C19.0782 28.736 19.1972 28.5743 19.2572 28.388C19.3171 28.2017 19.3146 28.0009 19.2502 27.8161C19.1858 27.6314 19.0629 27.4726 18.9001 27.3639C18.3033 26.9664 17.8139 26.4275 17.4755 25.7953C17.1371 25.1631 16.96 24.457 16.9601 23.7399C16.9601 23.4039 16.9661 23.1059 16.9861 22.8339C19.7846 25.6899 23.5565 27.3866 27.5501 27.5859C27.7043 27.5938 27.8583 27.5658 27.9998 27.5042C28.1414 27.4426 28.2668 27.349 28.3662 27.2309C28.4656 27.1127 28.5363 26.9731 28.5727 26.823C28.6091 26.673 28.6103 26.5165 28.5761 26.3659C28.4292 25.7414 28.4255 25.0918 28.5652 24.4657C28.7049 23.8395 28.9844 23.2531 29.3827 22.7502C29.7811 22.2474 30.2881 21.8412 30.8657 21.5619C31.4433 21.2827 32.0766 21.1378 32.7181 21.1379C35.1861 21.1379 36.9901 23.4239 36.9901 26.0019C36.9901 32.5139 32.0401 39.9499 23.0421 39.9499Z" fill="white"/>
</svg>
