<svg width="56" height="55" viewBox="0 0 56 55" fill="none" xmlns="http://www.w3.org/2000/svg">
<circle cx="28.166" cy="27.5" r="27.5" fill="#26D367"/>
<path d="M36.4785 19.1376C35.3325 17.98 33.9675 17.0622 32.4631 16.4376C30.9586 15.8131 29.3449 15.4944 27.716 15.5001C20.891 15.5001 15.3285 21.0626 15.3285 27.8876C15.3285 30.0751 15.9035 32.2001 16.9785 34.0751L15.2285 40.5001L21.791 38.7751C23.6035 39.7626 25.641 40.2876 27.716 40.2876C34.541 40.2876 40.1035 34.7251 40.1035 27.9001C40.1035 24.5876 38.816 21.4751 36.4785 19.1376ZM27.716 38.1876C25.866 38.1876 24.0535 37.6876 22.466 36.7501L22.091 36.5251L18.191 37.5501L19.2285 33.7501L18.9785 33.3626C17.9507 31.7213 17.4049 29.8241 17.4035 27.8876C17.4035 22.2126 22.0285 17.5876 27.7035 17.5876C30.4535 17.5876 33.041 18.6626 34.9785 20.6126C35.9379 21.5675 36.6981 22.7034 37.2153 23.9544C37.7324 25.2053 37.9961 26.5465 37.991 27.9001C38.016 33.5751 33.391 38.1876 27.716 38.1876ZM33.366 30.4876C33.0535 30.3376 31.5285 29.5876 31.2535 29.4751C30.966 29.3751 30.766 29.3251 30.5535 29.6251C30.341 29.9376 29.7535 30.6376 29.5785 30.8376C29.4035 31.0501 29.216 31.0751 28.9035 30.9126C28.591 30.7626 27.591 30.4251 26.416 29.3751C25.491 28.5501 24.8785 27.5376 24.691 27.2251C24.516 26.9126 24.666 26.7501 24.8285 26.5876C24.966 26.4501 25.141 26.2251 25.291 26.0501C25.441 25.8751 25.5035 25.7376 25.6035 25.5376C25.7035 25.3251 25.6535 25.1501 25.5785 25.0001C25.5035 24.8501 24.8785 23.3251 24.6285 22.7001C24.3785 22.1001 24.116 22.1751 23.9285 22.1626H23.3285C23.116 22.1626 22.791 22.2376 22.5035 22.5501C22.2285 22.8626 21.4285 23.6126 21.4285 25.1376C21.4285 26.6626 22.541 28.1376 22.691 28.3376C22.841 28.5501 24.8785 31.6751 27.9785 33.0126C28.716 33.3376 29.291 33.5251 29.741 33.6626C30.4785 33.9001 31.1535 33.8626 31.691 33.7876C32.291 33.7001 33.5285 33.0376 33.7785 32.3126C34.041 31.5876 34.041 30.9751 33.9535 30.8376C33.866 30.7001 33.6785 30.6376 33.366 30.4876Z" fill="white"/>
</svg>
